<?xml version="1.0" encoding="utf-8"?>
<!-- Generator: Adobe Illustrator 19.1.0, SVG Export Plug-In . SVG Version: 6.00 Build 0)  -->
<svg version="1.1" id="Layer_1" xmlns="http://www.w3.org/2000/svg" xmlns:xlink="http://www.w3.org/1999/xlink" x="0px" y="0px"
	 viewBox="0 0 288 311" style="enable-background:new 0 0 288 311;" xml:space="preserve">
<style type="text/css">
	.st0{display:none;clip-path:url(#SVGID_2_);}
	.st1{display:inline;}
	.st2{fill:#ECF0F1;}
	.st3{clip-path:url(#SVGID_4_);}
	.st4{opacity:0.7;fill:#ECF0F1;}
	.st5{opacity:0.5;fill:#ECF0F1;}
	.st6{opacity:0.6;fill:#ECF0F1;}
	.st7{opacity:0.75;fill:#ECF0F1;}
	.st8{opacity:0.45;fill:#ECF0F1;}
	.st9{opacity:0.8;fill:#ECF0F1;}
	.st10{opacity:0.55;fill:#ECF0F1;}
</style>
<g>
	<g>
		<defs>
			<rect id="SVGID_1_" y="0" width="288.7" height="311.4"/>
		</defs>
		<clipPath id="SVGID_2_">
			<use xlink:href="#SVGID_1_"  style="overflow:visible;"/>
		</clipPath>
		<g class="st0">
			<g class="st1">
				<g>
					<path id="crown-center_2_" class="st2" d="M32.8,77.4h-64.4L0.6,12.9L32.8,77.4z M0.6,34.5l-16.7,33.1h7.3h25.9L0.6,34.5z"/>
					<path id="crown-center_3_" class="st2" d="M128.5,77.4H64l32.3-64.5L128.5,77.4z M96.3,34.5L79.6,67.6h7.3h25.9L96.3,34.5z"/>
					<path id="crown-center_1_" class="st2" d="M48.4,77.4L16.2,12.9h64.4L48.4,77.4z M65,22.7H39.1h-7.3l16.7,33.1L65,22.7z"/>
					<path id="crown-center_4_" class="st2" d="M144.2,77.4l-32.3-64.5h64.4L144.2,77.4z M160.7,22.7h-25.9h-7.3l16.7,33.1
						L160.7,22.7z"/>
					<path id="crown-center_8_" class="st2" d="M225.1,77.4h-64.4L193,12.9L225.1,77.4z M193,34.5l-16.7,33.1h7.3h25.9L193,34.5z"/>
					<path id="crown-center_7_" class="st2" d="M320.8,77.4h-64.4l32.3-64.5L320.8,77.4z M288.7,34.5L272,67.6h7.3h25.9L288.7,34.5z
						"/>
					<path id="crown-center_6_" class="st2" d="M240.8,77.4l-32.3-64.5H273L240.8,77.4z M257.4,22.7h-25.9h-7.3l16.7,33.1
						L257.4,22.7z"/>
				</g>
				<g>
					<path id="crown-center_14_" class="st2" d="M0.6,155.4l-32.3-64.5h64.4L0.6,155.4z M17.2,100.7h-26h-7.3l16.7,33.1L17.2,100.7z
						"/>
					<path id="crown-center_13_" class="st2" d="M96.3,155.4L64,90.9h64.4L96.3,155.4z M112.9,100.7h-26h-7.3l16.7,33.1L112.9,100.7
						z"/>
					<path id="crown-center_12_" class="st2" d="M80.6,155.4H16.2l32.3-64.5L80.6,155.4z M48.4,112.5l-16.7,33.1H39h26L48.4,112.5z"
						/>
					<path id="crown-center_11_" class="st2" d="M176.3,155.4h-64.4l32.3-64.5L176.3,155.4z M144.2,112.5l-16.7,33.1h7.3h25.9
						L144.2,112.5z"/>
					<path id="crown-center_10_" class="st2" d="M193,155.4l-32.3-64.5h64.4L193,155.4z M209.5,100.7h-25.9h-7.3l16.7,33.1
						L209.5,100.7z"/>
					<path id="crown-center_9_" class="st2" d="M288.7,155.4l-32.3-64.5h64.4L288.7,155.4z M305.2,100.7h-25.9H272l16.7,33.1
						L305.2,100.7z"/>
					<path id="crown-center_5_" class="st2" d="M273,155.4h-64.4l32.3-64.5L273,155.4z M240.8,112.5l-16.7,33.1h7.3h25.9
						L240.8,112.5z"/>
				</g>
			</g>
			<g class="st1">
				<g>
					<path id="crown-center_28_" class="st2" d="M32.8,233.4h-64.4l32.3-64.5L32.8,233.4z M0.6,190.5l-16.7,33.1h7.3h25.9L0.6,190.5
						z"/>
					<path id="crown-center_27_" class="st2" d="M128.5,233.4H64l32.3-64.5L128.5,233.4z M96.3,190.5l-16.7,33.1h7.3h25.9
						L96.3,190.5z"/>
					<path id="crown-center_26_" class="st2" d="M48.4,233.4l-32.3-64.5h64.4L48.4,233.4z M65,178.7H39.1h-7.3l16.7,33.1L65,178.7z"
						/>
					<path id="crown-center_25_" class="st2" d="M144.2,233.4l-32.3-64.5h64.4L144.2,233.4z M160.7,178.7h-25.9h-7.3l16.7,33.1
						L160.7,178.7z"/>
					<path id="crown-center_24_" class="st2" d="M225.1,233.4h-64.4l32.3-64.5L225.1,233.4z M193,190.5l-16.7,33.1h7.3h25.9
						L193,190.5z"/>
					<path id="crown-center_23_" class="st2" d="M320.8,233.4h-64.4l32.3-64.5L320.8,233.4z M288.7,190.5L272,223.6h7.3h25.9
						L288.7,190.5z"/>
					<path id="crown-center_22_" class="st2" d="M240.8,233.4l-32.3-64.5H273L240.8,233.4z M257.4,178.7h-25.9h-7.3l16.7,33.1
						L257.4,178.7z"/>
				</g>
				<g>
					<path id="crown-center_21_" class="st2" d="M0.6,311.4l-32.3-64.5h64.4L0.6,311.4z M17.2,256.7h-26h-7.3l16.7,33.1L17.2,256.7z
						"/>
					<path id="crown-center_20_" class="st2" d="M96.3,311.4L64,246.9h64.4L96.3,311.4z M112.9,256.7h-26h-7.3l16.7,33.1
						L112.9,256.7z"/>
					<path id="crown-center_19_" class="st2" d="M80.6,311.4H16.2l32.3-64.5L80.6,311.4z M48.4,268.5l-16.7,33.1H39h26L48.4,268.5z"
						/>
					<path id="crown-center_18_" class="st2" d="M176.3,311.4h-64.4l32.3-64.5L176.3,311.4z M144.2,268.5l-16.7,33.1h7.3h25.9
						L144.2,268.5z"/>
					<path id="crown-center_17_" class="st2" d="M193,311.4l-32.3-64.5h64.4L193,311.4z M209.5,256.7h-25.9h-7.3l16.7,33.1
						L209.5,256.7z"/>
					<path id="crown-center_16_" class="st2" d="M288.7,311.4l-32.3-64.5h64.4L288.7,311.4z M305.2,256.7h-25.9H272l16.7,33.1
						L305.2,256.7z"/>
					<path id="crown-center_15_" class="st2" d="M273,311.4h-64.4l32.3-64.5L273,311.4z M240.8,268.5l-16.7,33.1h7.3h25.9
						L240.8,268.5z"/>
				</g>
			</g>
		</g>
	</g>
	<g>
		<defs>
			<rect id="SVGID_3_" y="0" width="288.7" height="311.4"/>
		</defs>
		<clipPath id="SVGID_4_">
			<use xlink:href="#SVGID_3_"  style="overflow:visible;"/>
		</clipPath>
		<g class="st3">
			<g>
				<g>
					<path id="crown-center_56_" class="st4" d="M32.8,77.4h-64.4L0.6,12.9L32.8,77.4z M0.6,34.5l-16.7,33.1h7.3h25.9L0.6,34.5z"/>
					<path id="crown-center_55_" class="st5" d="M128.5,77.4H64l32.3-64.5L128.5,77.4z M96.3,34.5L79.6,67.6h7.3h25.9L96.3,34.5z"/>
					<path id="crown-center_54_" class="st6" d="M48.4,77.4L16.2,12.9h64.4L48.4,77.4z M65,22.7H39.1h-7.3l16.7,33.1L65,22.7z"/>
					<path id="crown-center_53_" class="st2" d="M144.2,77.4l-32.3-64.5h64.4L144.2,77.4z M160.7,22.7h-25.9h-7.3l16.7,33.1
						L160.7,22.7z"/>
					<path id="crown-center_52_" class="st7" d="M225.1,77.4h-64.4L193,12.9L225.1,77.4z M193,34.5l-16.7,33.1h7.3h25.9L193,34.5z"
						/>
					<path id="crown-center_51_" class="st4" d="M320.8,77.4h-64.4l32.3-64.5L320.8,77.4z M288.7,34.5L272,67.6h7.3h25.9L288.7,34.5
						z"/>
					<path id="crown-center_50_" class="st2" d="M240.8,77.4l-32.3-64.5H273L240.8,77.4z M257.4,22.7h-25.9h-7.3l16.7,33.1
						L257.4,22.7z"/>
				</g>
				<g>
					<path id="crown-center_49_" class="st2" d="M0.6,155.4l-32.3-64.5h64.4L0.6,155.4z M17.2,100.7h-26h-7.3l16.7,33.1L17.2,100.7z
						"/>
					<path id="crown-center_48_" class="st2" d="M96.3,155.4L64,90.9h64.4L96.3,155.4z M112.9,100.7h-26h-7.3l16.7,33.1L112.9,100.7
						z"/>
					<path id="crown-center_47_" class="st8" d="M80.6,155.4H16.2l32.3-64.5L80.6,155.4z M48.4,112.5l-16.7,33.1H39h26L48.4,112.5z"
						/>
					<path id="crown-center_46_" class="st9" d="M176.3,155.4h-64.4l32.3-64.5L176.3,155.4z M144.2,112.5l-16.7,33.1h7.3h25.9
						L144.2,112.5z"/>
					<path id="crown-center_45_" class="st6" d="M193,155.4l-32.3-64.5h64.4L193,155.4z M209.5,100.7h-25.9h-7.3l16.7,33.1
						L209.5,100.7z"/>
					<path id="crown-center_44_" class="st2" d="M288.7,155.4l-32.3-64.5h64.4L288.7,155.4z M305.2,100.7h-25.9H272l16.7,33.1
						L305.2,100.7z"/>
					<path id="crown-center_43_" class="st5" d="M273,155.4h-64.4l32.3-64.5L273,155.4z M240.8,112.5l-16.7,33.1h7.3h25.9
						L240.8,112.5z"/>
				</g>
			</g>
			<g>
				<g>
					<path id="crown-center_42_" class="st2" d="M32.8,233.4h-64.4l32.3-64.5L32.8,233.4z M0.6,190.5l-16.7,33.1h7.3h25.9L0.6,190.5
						z"/>
					<path id="crown-center_41_" class="st6" d="M128.5,233.4H64l32.3-64.5L128.5,233.4z M96.3,190.5l-16.7,33.1h7.3h25.9
						L96.3,190.5z"/>
					<path id="crown-center_40_" class="st2" d="M48.4,233.4l-32.3-64.5h64.4L48.4,233.4z M65,178.7H39.1h-7.3l16.7,33.1L65,178.7z"
						/>
					<path id="crown-center_39_" class="st4" d="M144.2,233.4l-32.3-64.5h64.4L144.2,233.4z M160.7,178.7h-25.9h-7.3l16.7,33.1
						L160.7,178.7z"/>
					<path id="crown-center_38_" class="st2" d="M225.1,233.4h-64.4l32.3-64.5L225.1,233.4z M193,190.5l-16.7,33.1h7.3h25.9
						L193,190.5z"/>
					<path id="crown-center_37_" class="st2" d="M320.8,233.4h-64.4l32.3-64.5L320.8,233.4z M288.7,190.5L272,223.6h7.3h25.9
						L288.7,190.5z"/>
					<path id="crown-center_36_" class="st10" d="M240.8,233.4l-32.3-64.5H273L240.8,233.4z M257.4,178.7h-25.9h-7.3l16.7,33.1
						L257.4,178.7z"/>
				</g>
				<g>
					<path id="crown-center_35_" class="st2" d="M0.6,311.4l-32.3-64.5h64.4L0.6,311.4z M17.2,256.7h-26h-7.3l16.7,33.1L17.2,256.7z
						"/>
					<path id="crown-center_34_" class="st2" d="M96.3,311.4L64,246.9h64.4L96.3,311.4z M112.9,256.7h-26h-7.3l16.7,33.1
						L112.9,256.7z"/>
					<path id="crown-center_33_" class="st4" d="M80.6,311.4H16.2l32.3-64.5L80.6,311.4z M48.4,268.5l-16.7,33.1H39h26L48.4,268.5z"
						/>
					<path id="crown-center_32_" class="st2" d="M176.3,311.4h-64.4l32.3-64.5L176.3,311.4z M144.2,268.5l-16.7,33.1h7.3h25.9
						L144.2,268.5z"/>
					<path id="crown-center_31_" class="st5" d="M193,311.4l-32.3-64.5h64.4L193,311.4z M209.5,256.7h-25.9h-7.3l16.7,33.1
						L209.5,256.7z"/>
					<path id="crown-center_30_" class="st2" d="M288.7,311.4l-32.3-64.5h64.4L288.7,311.4z M305.2,256.7h-25.9H272l16.7,33.1
						L305.2,256.7z"/>
					<path id="crown-center_29_" class="st2" d="M273,311.4h-64.4l32.3-64.5L273,311.4z M240.8,268.5l-16.7,33.1h7.3h25.9
						L240.8,268.5z"/>
				</g>
			</g>
		</g>
	</g>
</g>
</svg>
