<?xml version="1.0" encoding="utf-8"?>
<!-- Generator: Adobe Illustrator 19.1.0, SVG Export Plug-In . SVG Version: 6.00 Build 0)  -->
<svg version="1.1" id="Layer_1" xmlns="http://www.w3.org/2000/svg" xmlns:xlink="http://www.w3.org/1999/xlink" x="0px" y="0px"
	 viewBox="0 0 1152 648" style="enable-background:new 0 0 1152 648;" xml:space="preserve">
<style type="text/css">
	.st0{clip-path:url(#SVGID_2_);}
	.st1{fill:#14294E;}
	.st2{fill:#3A5084;}
	.st3{fill:#223367;}
</style>
<g>
	<defs>
		<rect id="SVGID_1_" width="1152" height="648"/>
	</defs>
	<clipPath id="SVGID_2_">
		<use xlink:href="#SVGID_1_"  style="overflow:visible;"/>
	</clipPath>
	<g class="st0">
		<polygon class="st1" points="696.3,661.4 359.3,-12.7 1026.8,-12.7 		"/>
		<polygon class="st2" points="301.4,-6 959.4,652 301.4,652 		"/>
		<polygon class="st3" points="908.3,674.5 215.8,674.5 908.3,-18 		"/>
		<polygon class="st1" points="526.6,661.4 -141,661.4 196.1,-12.7 		"/>
		<polygon class="st3" points="-124.2,-13 568.3,-13 -124.2,679.5 		"/>
		<polygon class="st2" points="-88.6,-6 569.4,652 -88.6,652 		"/>
		<polygon class="st2" points="1394.6,652 736.7,-6 1394.6,-6 		"/>
		<polygon class="st1" points="1184.4,661.4 516.8,661.4 853.9,-12.7 		"/>
		<polygon class="st1" points="-133.7,661.4 -470.7,-12.7 196.8,-12.7 		"/>
		<polygon class="st3" points="1168.3,674.5 475.8,674.5 1168.3,-18 		"/>
	</g>
</g>
</svg>
